<?xml version="1.0" standalone="no"?><!DOCTYPE svg PUBLIC "-//W3C//DTD SVG 1.1//EN" "http://www.w3.org/Graphics/SVG/1.1/DTD/svg11.dtd"><svg t="1616822346135" class="icon" viewBox="0 0 1024 1024" version="1.1" xmlns="http://www.w3.org/2000/svg" p-id="6066" xmlns:xlink="http://www.w3.org/1999/xlink" width="200" height="200"><defs><style type="text/css"></style></defs><path d="M208.896 96.256h-102.4v102.4h51.2v257.024h102.4v-307.2c0-28.672-22.528-52.224-51.2-52.224z m405.504 0H409.6c-28.672 0-51.2 22.528-51.2 51.2v257.024c0 28.672 22.528 51.2 51.2 51.2h204.8c28.672 0 51.2-22.528 51.2-51.2v-256c0-28.672-22.528-52.224-51.2-52.224z m-51.2 257.024H460.8v-153.6h102.4v153.6zM847.872 96.256h-102.4v102.4h51.2v257.024h102.4v-307.2c0-28.672-22.528-52.224-51.2-52.224z m-539.648 471.04H102.4c-28.672 0-51.2 22.528-51.2 51.2v257.024c0 28.672 22.528 51.2 51.2 51.2h205.824c28.672 0 51.2-22.528 51.2-51.2v-256c0-28.672-22.528-52.224-51.2-52.224z m-51.2 257.024H153.6v-153.6h102.4l1.024 153.6z m269.312-256h-102.4v102.4h51.2v257.024h102.4V619.52c1.024-28.672-22.528-51.2-51.2-51.2z m395.264 0H715.776c-28.672 0-51.2 22.528-51.2 51.2v257.024c0 28.672 22.528 51.2 51.2 51.2H921.6c28.672 0 51.2-22.528 51.2-51.2V619.52c0-28.672-23.552-51.2-51.2-51.2z m-51.2 256H768v-153.6h102.4v153.6z" fill="#BABABA" p-id="6067"></path></svg>